HIERARCHY
ROOT Bip001_Pelvis
{
  OFFSET 7.937 94.8971 -8.5489
  CHANNELS 6 Xposition Yposition Zposition Zrotation Xrotation Yrotation
  JOINT Bip001_Spine
  {
    OFFSET 1.44608e-005 10.4157 -0.0118244
    CHANNELS 3 Zrotation Xrotation Yrotation
    JOINT Bip001_L_Thigh
    {
      OFFSET 11.2582 -10.4157 0.0118432
      CHANNELS 3 Zrotation Xrotation Yrotation
      JOINT Bip001_L_Calf
      {
        OFFSET -0.720717 -44.8687 0.366937
        CHANNELS 3 Zrotation Xrotation Yrotation
        JOINT Bip001_L_Foot
        {
          OFFSET -0.664439 -41.3745 -3.62995
          CHANNELS 3 Zrotation Xrotation Yrotation
          JOINT Bip001_L_Toe0
          {
            OFFSET 0.0541047 -10.4146 13.4033
            CHANNELS 3 Zrotation Xrotation Yrotation
            End Site
            {
              OFFSET -1.04503e-005 0 7.70137
            }
          }
        }
      }
    }
    JOINT Bip001_R_Thigh
    {
      OFFSET -11.2582 -10.4156 0.0118122
      CHANNELS 3 Zrotation Xrotation Yrotation
      JOINT Bip001_R_Calf
      {
        OFFSET 0.72059 -44.8687 0.36676
        CHANNELS 3 Zrotation Xrotation Yrotation
        JOINT Bip001_R_Foot
        {
          OFFSET 0.664321 -41.3745 -3.62979
          CHANNELS 3 Zrotation Xrotation Yrotation
          JOINT Bip001_R_Toe0
          {
            OFFSET -0.05417 -10.4146 13.4033
            CHANNELS 3 Zrotation Xrotation Yrotation
            End Site
            {
              OFFSET -1.04873e-005 0 7.70137
            }
          }
        }
      }
    }
    JOINT Bip001_Spine1
    {
      OFFSET 1.90638e-005 14.8539 1.10727
      CHANNELS 3 Zrotation Xrotation Yrotation
      JOINT Bip001_Spine2
      {
        OFFSET 2.28934e-005 14.7848 -1.7233
        CHANNELS 3 Zrotation Xrotation Yrotation
        JOINT Bip001_Neck
        {
          OFFSET 2.24514e-005 15.6905 -0.498826
          CHANNELS 3 Zrotation Xrotation Yrotation
          JOINT Bip001_L_Clavicle
          {
            OFFSET 6.17691 -0.000591152 0.00852867
            CHANNELS 3 Zrotation Xrotation Yrotation
            JOINT Bip001_L_UpperArm
            {
              OFFSET 11.773 -0.0611878 0.00197697
              CHANNELS 3 Zrotation Xrotation Yrotation
              JOINT Bip001_L_Forearm
              {
                OFFSET 26.4515 0.0817568 -2.19579
                CHANNELS 3 Zrotation Xrotation Yrotation
                JOINT Bip001_L_Hand
                {
                  OFFSET 32.8677 0.156744 1.67112
                  CHANNELS 3 Zrotation Xrotation Yrotation
                  JOINT Bip001_L_Finger0
                  {
                    OFFSET 6.16268 -2.25226 6.01674
                    CHANNELS 3 Zrotation Xrotation Yrotation
                    End Site
                    {
                      OFFSET 4.30499 -1.46662 0.618148
                    }
                  }
                  JOINT Bip001_L_Finger1
                  {
                    OFFSET 11.2957 -0.718374 -0.201963
                    CHANNELS 3 Zrotation Xrotation Yrotation
                    End Site
                    {
                      OFFSET 6.31952 -0.405163 -0.0802303
                    }
                  }
                }
              }
            }
          }
          JOINT Bip001_R_Clavicle
          {
            OFFSET -6.17691 -0.000574027 0.00851165
            CHANNELS 3 Zrotation Xrotation Yrotation
            JOINT Bip001_R_UpperArm
            {
              OFFSET -11.773 -0.0611516 0.00194365
              CHANNELS 3 Zrotation Xrotation Yrotation
              JOINT Bip001_R_Forearm
              {
                OFFSET -26.4514 0.0822334 -2.19736
                CHANNELS 3 Zrotation Xrotation Yrotation
                JOINT Bip001_R_Hand
                {
                  OFFSET -32.8677 0.156817 1.67144
                  CHANNELS 3 Zrotation Xrotation Yrotation
                  JOINT Bip001_R_Finger0
                  {
                    OFFSET -6.1627 -2.25224 6.0167
                    CHANNELS 3 Zrotation Xrotation Yrotation
                    End Site
                    {
                      OFFSET -4.30499 -1.46662 0.618134
                    }
                  }
                  JOINT Bip001_R_Finger1
                  {
                    OFFSET -11.2958 -0.718344 -0.201994
                    CHANNELS 3 Zrotation Xrotation Yrotation
                    End Site
                    {
                      OFFSET -6.31952 -0.405146 -0.0802475
                    }
                  }
                }
              }
            }
          }
          JOINT Bip001_Head
          {
            OFFSET 1.11782e-005 11.4912 2.09908
            CHANNELS 3 Zrotation Xrotation Yrotation
            End Site
            {
              OFFSET 2.95144e-005 21.2823 -2.83069e-005
            }
          }
        }
      }
    }
  }
}
MOTION
Frames:	9
Frame Time:	0.04
7.59996 95.5208 -8.33005 -0.0524781 -0.61959 4.61186 0.0352776 1.76043 0.130337 5.39049 -9.70462 7.46572 -1.02699 14.7765 -2.38313 -2.90513 -5.43711 -0.644962 0.668024 -9.86084 0.230516 -7.98315 -6.0297 -0.936097 0.68995 14.2995 0.0546759 1.41208 -8.34606 -11.1437 -1.13668 -11.4743 0.856489 -0.111277 3.52643 0.252045 -0.111509 3.52643 0.252794 1.79646 11.9751 -3.20091 -32.092 -6.53832 -14.0286 -48.4353 42.2627 4.6589 12.5289 1.55794 -24.1066 -3.15237 -0.363575 -1.3192 -1.59028e-015 0 1.59028e-015 -1.59028e-015 -3.18056e-015 1.59028e-015 35.032 -1.94948 19.5563 48.5311 38.9519 -14.3559 5.24928 -33.9239 25.6421 16.6054 -1.71109 -17.2648 7.95139e-016 -3.18055e-015 3.18055e-015 -1.59028e-015 0 6.36111e-015 -2.38823 10.87 -1.72915 
7.50925 95.5187 -8.2965 -0.0808771 -0.628782 4.567 0.0372427 1.75297 0.0666532 5.4819 -9.66144 7.5613 -1.01256 14.7866 -2.44225 -2.97043 -5.47184 -0.604123 0.671034 -9.86083 0.248088 -7.89759 -6.02705 -0.736724 0.718489 14.3217 -0.000234015 1.39768 -8.39471 -11.1763 -1.18575 -11.4719 0.862445 -0.0883891 3.50589 0.124634 -0.0878198 3.50591 0.124661 1.57587 12.1795 -2.91646 -31.9906 -6.64813 -14.1091 -48.3466 42.452 4.70555 12.2327 1.61421 -23.4597 -3.33645 -0.381278 -1.25991 1.59028e-015 -1.27222e-014 2.38542e-015 1.59028e-015 -1.27222e-014 7.95139e-016 35.4959 -2.28241 19.2508 48.7327 36.8288 -15.265 7.42579 -36.2178 28.3883 16.7697 -2.742 -16.8574 -1.59028e-015 3.18055e-015 -1.59028e-015 -2.38542e-015 4.77083e-015 -1.59028e-015 -2.44764 11.0895 -1.50798 
7.45435 95.5133 -8.29846 -0.0860503 -0.63361 4.49866 0.0382518 1.73648 0.0339834 5.51428 -9.63762 7.43186 -1.02327 14.797 -2.32523 -3.0143 -5.49519 -0.518166 0.675218 -9.85053 0.272804 -7.87957 -6.06611 -1.00629 0.669112 14.4074 0.172141 1.41667 -8.43878 -10.995 -1.23307 -11.4641 0.89228 -0.0843815 3.47292 0.0588217 -0.0846761 3.47292 0.0587657 1.44717 12.2477 -2.68386 -31.923 -6.62366 -14.2201 -48.5049 42.5627 4.9302 12.145 1.57205 -23.0627 -3.52691 -0.413761 -1.22345 1.59028e-015 -9.54166e-015 2.38542e-015 4.77083e-015 -9.54167e-015 -0 35.6937 -2.45524 19.0716 48.3675 34.9816 -15.3461 9.59781 -38.1814 31.4003 16.6622 -2.69466 -19.1358 3.18055e-015 -1.59028e-015 -3.18055e-015 7.95139e-016 0 1.59028e-015 -2.55996 11.1421 -1.29059 
7.41076 95.5091 -8.31683 -0.115124 -0.619406 4.44943 0.0383231 1.70722 0.0321718 5.5587 -9.64147 7.37445 -1.01399 14.8254 -2.39137 -3.045 -5.52059 -0.386085 0.681741 -9.83689 0.31136 -7.83295 -6.09527 -0.892964 0.703905 14.4381 0.131844 1.40642 -8.45044 -11.0231 -1.26217 -11.458 0.905783 -0.088754 3.41441 0.04014 -0.0885849 3.41441 0.0402219 1.20768 12.2442 -2.45803 -31.7046 -6.52985 -14.3369 -48.5334 42.5201 4.9664 11.9871 1.49861 -22.7654 -3.5289 -0.423697 -1.28776 1.59028e-015 0 -1.59028e-015 0 0 -0 35.7882 -2.56707 18.9413 47.5766 32.7583 -14.848 11.3724 -38.5932 34.9016 15.5962 -1.81782 -21.8055 -3.97569e-015 0 -3.18055e-015 -7.95139e-016 0 -4.77083e-015 -2.44186 11.1421 -1.19829 
7.39765 95.5059 -8.33647 -0.117676 -0.631448 4.42397 0.0341554 1.677 0.0384146 5.57436 -9.62725 7.46098 -0.971603 14.8466 -2.53205 -3.04866 -5.52999 -0.344964 0.684871 -9.83577 0.329717 -7.81635 -6.08309 -0.822755 0.72257 14.4545 0.0323898 1.44759 -8.46354 -10.9819 -1.30386 -11.4462 0.908217 -0.119244 3.35396 0.0672037 -0.119244 3.35396 0.0672036 1.08803 12.126 -2.32597 -31.5898 -6.3695 -14.3631 -48.3882 42.3247 4.78983 11.9158 1.36087 -22.6606 -3.83763 -0.546008 -1.29048 -8.82781e-032 -3.18055e-015 -1.59028e-015 1.59028e-015 -3.18056e-015 -1.59028e-015 35.672 -2.57139 18.8181 46.4495 31.1583 -13.9737 15.6376 -39.5553 41.6348 11.1867 -0.476742 -25.4775 5.96354e-016 1.59028e-015 -0 7.95139e-016 -1.59028e-015 -1.59028e-015 -2.37977 11.2073 -1.13237 
7.37477 95.4927 -8.36765 -0.194019 -0.581441 4.46685 0.00654499 1.61824 0.0750069 5.71227 -9.7497 7.42879 -1.00428 15.053 -2.49708 -3.04913 -5.5987 -0.40968 0.683709 -9.84032 0.322768 -7.71013 -6.09516 -2.24851 0.335055 14.5201 0.75387 1.58459 -8.45061 -10.3332 -1.30358 -11.4689 0.952144 -0.176192 3.23636 0.140948 -0.176192 3.23637 0.14095 1.16594 12.1046 -2.32602 -31.6069 -6.31598 -14.4684 -48.0827 42.0693 4.5384 11.8636 1.25296 -22.7005 -3.90121 -0.541439 -1.43431 3.18055e-015 -9.54166e-015 -7.95139e-016 3.18055e-015 -6.36111e-015 7.95139e-016 35.1886 -2.74583 18.6052 45.2858 30.4028 -12.4934 22.8028 -40.5373 51.8165 3.06316 2.03617 -29.1102 3.97569e-016 7.95139e-016 -7.95139e-016 2.98177e-016 0 -0 -2.32305 11.1763 -1.1207 
7.3816 95.5003 -8.36756 -0.267349 -0.560396 4.58749 -0.0453301 1.55223 0.0941609 5.83997 -9.76446 7.53893 -0.98662 15.12 -2.60109 -3.03328 -5.60287 -0.538885 0.680825 -9.84313 0.305802 -7.5782 -5.93428 -1.34087 0.581406 14.3067 0.130892 1.55506 -8.38436 -10.7727 -1.34037 -11.4528 0.943229 -0.283767 3.10424 0.178568 -0.283766 3.10425 0.17856 1.29821 11.9779 -2.30405 -31.6305 -6.20277 -14.4445 -47.8263 41.7225 4.39309 12.0096 1.48873 -23.0335 -3.61688 -0.475511 -1.35 -1.59028e-015 0 1.59028e-015 1.59028e-015 0 -0 34.4621 -2.82189 18.4765 43.6822 30.0016 -10.1654 30.3733 -39.004 62.6674 -6.63736 4.70553 -32.0021 4.22417e-016 0 9.93923e-017 9.53545e-016 0 2.98177e-016 -2.37072 11.2387 -1.03144 
7.39185 95.4967 -8.40511 -0.25393 -0.56735 4.75285 -0.102897 1.47944 0.108969 5.85986 -9.75126 7.52278 -0.959608 15.1364 -2.6883 -3.01691 -5.56599 -0.617004 0.680119 -9.84628 0.301582 -7.54612 -5.84542 -1.21892 0.638713 14.325 -0.03555 1.56358 -8.40553 -10.8939 -1.35539 -11.4407 0.93571 -0.400233 2.95856 0.211734 -0.400232 2.95855 0.211734 1.1015 11.7021 -2.08457 -31.5683 -5.83168 -14.4997 -47.2587 41.4725 4.14236 11.9441 1.27368 -23.4182 -3.43767 -0.419182 -1.33127 -3.18055e-015 -9.54166e-015 6.36111e-015 -1.59028e-015 -3.18056e-015 6.36111e-015 33.6204 -2.87275 18.2828 41.8823 27.672 -7.12618 31.7138 -32.653 69.5011 -10.8312 7.67381 -34.6764 -2.48481e-016 -1.19271e-015 -1.59028e-015 -4.96962e-017 -1.19271e-015 -7.95139e-016 -2.24782 11.1868 -0.931412 
7.45954 95.5061 -8.15779 -0.0278813 -0.952814 4.96839 -0.190593 1.47295 0.168964 5.70048 -9.05145 8.3671 -0.736852 14.8163 -3.46717 -3.0076 -5.50831 -0.993193 0.673057 -9.85323 0.260103 -7.72179 -5.19271 -2.04917 0.525616 14.3242 0.452187 1.58702 -8.60114 -10.7278 -1.3458 -11.4423 0.920217 -0.575789 2.94513 0.334856 -0.575395 2.94513 0.335384 0.881954 11.2881 -1.8398 -31.4806 -5.29026 -14.6094 -46.647 41.3706 3.68576 11.7151 0.508128 -23.6951 -3.54753 -0.439228 -1.38243 -4.77083e-015 0 -0 -3.18055e-015 0 -1.59028e-015 32.4775 -2.90307 17.9434 39.5541 24.1181 -2.81192 29.0215 -24.3859 73.2067 -9.89885 7.3158 -34.963 -7.95139e-016 1.59028e-015 -0 -3.97569e-016 1.59028e-015 -0 -2.15437 11.0245 -0.808029 
